HIERARCHY
ROOT Hips
{
  OFFSET 52.2558 86.4706 4.20045
  CHANNELS 6 Xposition Yposition Zposition Zrotation Xrotation Yrotation
  JOINT spine
  {
    OFFSET 0 6.84637 0.3937
    CHANNELS 3 Zrotation Xrotation Yrotation
    JOINT spine1
    {
      OFFSET 0 9.49621 0
      CHANNELS 3 Zrotation Xrotation Yrotation
      JOINT spine2
      {
        OFFSET 0 9.09909 0
        CHANNELS 3 Zrotation Xrotation Yrotation
        JOINT Neck
        {
          OFFSET 0 23.3612 1.11378
          CHANNELS 3 Zrotation Xrotation Yrotation
          JOINT Head
          {
            OFFSET 0 7.05802 0
            CHANNELS 3 Zrotation Xrotation Yrotation
            End Site
            {
              OFFSET 0 17.0844 -5.63419
            }
          }
        }
        JOINT RightShoulder
        {
          OFFSET -3.83136 9.82631 -0.533491
          CHANNELS 3 Zrotation Xrotation Yrotation
          JOINT RightArm
          {
            OFFSET 0 12.8881 0
            CHANNELS 3 Zrotation Xrotation Yrotation
            JOINT RightArmRoll
            {
              OFFSET 0 6.50617 0
              CHANNELS 3 Zrotation Xrotation Yrotation
              JOINT RightForeArm
              {
                OFFSET 0 18.9501 0
                CHANNELS 3 Zrotation Xrotation Yrotation
                JOINT RightForeArmRoll
                {
                  OFFSET 0 7.30093 0
                  CHANNELS 3 Zrotation Xrotation Yrotation
                  JOINT RightHand
                  {
                    OFFSET 0 14.6514 0
                    CHANNELS 3 Zrotation Xrotation Yrotation
                    End Site
                    {
                      OFFSET 0 0 0
                    }
                  }
                }
              }
            }
          }
        }
        JOINT LeftShoulder
        {
          OFFSET 3.83136 9.82631 -0.533491
          CHANNELS 3 Zrotation Xrotation Yrotation
          JOINT LeftArm
          {
            OFFSET 0 12.8881 0
            CHANNELS 3 Zrotation Xrotation Yrotation
            JOINT LeftArmRoll
            {
              OFFSET 0 6.50617 0
              CHANNELS 3 Zrotation Xrotation Yrotation
              JOINT LeftForeArm
              {
                OFFSET 0 18.9501 0
                CHANNELS 3 Zrotation Xrotation Yrotation
                JOINT LeftForeArmRoll
                {
                  OFFSET 0 7.30093 0
                  CHANNELS 3 Zrotation Xrotation Yrotation
                  JOINT LeftHand
                  {
                    OFFSET 0 14.6514 0
                    CHANNELS 3 Zrotation Xrotation Yrotation
                    End Site
                    {
                      OFFSET 0 0 0
                    }
                  }
                }
              }
            }
          }
        }
      }
    }
  }
  JOINT RightUpLeg
  {
    OFFSET -6.06837 -1.11278 -0.933477
    CHANNELS 3 Zrotation Xrotation Yrotation
    JOINT RightUpLegRoll
    {
      OFFSET 0 17.1796 0
      CHANNELS 3 Zrotation Xrotation Yrotation
      JOINT RightLeg
      {
        OFFSET 0 -21.2743 0
        CHANNELS 3 Zrotation Xrotation Yrotation
        JOINT RightLegRoll
        {
          OFFSET 0 21.3439 0
          CHANNELS 3 Zrotation Xrotation Yrotation
          JOINT RightFoot
          {
            OFFSET 0 17.7652 0
            CHANNELS 3 Zrotation Xrotation Yrotation
            JOINT RightToeBase
            {
              OFFSET 0 14.8508 0
              CHANNELS 3 Zrotation Xrotation Yrotation
              End Site
              {
                OFFSET 0.0062947 7.19214 -0.829005
              }
            }
          }
        }
      }
    }
  }
  JOINT LeftUpLeg
  {
    OFFSET 6.06837 -1.11278 -0.933477
    CHANNELS 3 Zrotation Xrotation Yrotation
    JOINT LeftUpLegRoll
    {
      OFFSET 0 17.1797 0
      CHANNELS 3 Zrotation Xrotation Yrotation
      JOINT LeftLeg
      {
        OFFSET 0 21.2742 0
        CHANNELS 3 Zrotation Xrotation Yrotation
        JOINT LeftLegRoll
        {
          OFFSET 0 21.5412 0
          CHANNELS 3 Zrotation Xrotation Yrotation
          JOINT LeftFoot
          {
            OFFSET 0 17.5679 0
            CHANNELS 3 Zrotation Xrotation Yrotation
            JOINT LeftToeBase
            {
              OFFSET 0 14.8508 0
              CHANNELS 3 Zrotation Xrotation Yrotation
              End Site
              {
                OFFSET -0.0282102 7.19214 -0.829005
              }
            }
          }
        }
      }
    }
  }
}
MOTION
Frames: 10
Frame Time: 0.00208333
52.8003 86.5368 3.28838 0.646214 -1.22463 -2.22391 1.38433 -1.65901 0.783266 2.79393 0.700877 1.42612 2.76912 2.34463 1.38031 -22.6907 4.72942 -2.67743 18.1251 9.86259 -7.99993 48.2025 -6.08093 -3.16379 105.847 14.1202 23.6935 4.89451e-009 -1.21252e-006 -3.59924e-006 13.1704 0.105249 -0.436171 -5.37062e-006 -3.89858e-006 -3.0264 8.0289 -4.95148 0.697699 -74.6871 -8.12153 5.41174 -93.1042 20.5635 -29.5323 1.52525e-005 3.11965e-006 1.32509e-006 -13.5503 0.909073 -0.614696 4.77421e-006 3.55589e-006 2.99999 -8.02888 -4.95144 -0.697664 176.782 15.947 0.481151 -180 7.01549e-015 178.93 175.027 23.9944 -179.4 -2.45299e-006 -1.98149e-007 0.458924 -22.1259 70.1234 21.5886 8.13649 25.2326 -3.48774 -179.98 13.0995 1.26483 4.54188e-006 -4.6773e-006 -1.16744 -2.10878 -25.1044 0.207687 -8.96817e-007 -4.47747e-006 -0.717243 25.2009 73.8421 -26.2253 -8.13649 25.2327 3.48774 
52.8044 86.5361 3.28603 0.647734 -1.23929 -2.23251 1.38438 -1.65678 0.786331 2.79241 0.705401 1.43222 2.76827 2.34915 1.38642 -22.6734 4.73653 -2.68547 18.1055 9.86173 -8.00527 48.2171 -6.09165 -3.17281 105.855 14.1475 23.5888 4.89449e-009 -1.21252e-006 -3.59924e-006 13.224 0.103527 -0.425543 -5.37062e-006 -3.89858e-006 -3.02594 8.0289 -4.95148 0.697699 -74.6737 -8.10975 5.40611 -93.1331 20.621 -29.5214 1.52525e-005 3.11965e-006 1.32509e-006 -13.5395 0.910804 -0.614008 4.77421e-006 3.55589e-006 2.99999 -8.02888 -4.95144 -0.697664 176.775 15.9367 0.488406 -180 7.01549e-015 178.93 175.025 23.9992 -179.4 -2.45299e-006 -1.98149e-007 0.45892 -22.1256 70.1238 21.5888 8.13649 25.2326 -3.48774 -179.986 13.0849 1.26423 4.54188e-006 -4.6773e-006 -1.16782 -2.11257 -25.1064 0.206059 -8.96817e-007 -4.47747e-006 -0.717627 25.2124 73.8446 -26.2299 -8.13649 25.2327 3.48774 
52.8149 86.5354 3.30228 0.649338 -1.25451 -2.24105 1.38447 -1.65446 0.789542 2.79085 0.710124 1.43861 2.76738 2.35387 1.39281 -22.6553 4.74413 -2.694 18.0853 9.86053 -8.01098 48.2323 -6.1029 -3.18228 105.862 14.1745 23.4854 4.89446e-009 -1.21252e-006 -3.59924e-006 13.2772 0.100919 -0.414907 -5.37062e-006 -3.89858e-006 -3.02548 8.0289 -4.95148 0.697699 -74.6597 -8.09753 5.40026 -93.163 20.6791 -29.5109 1.52525e-005 3.11965e-006 1.32509e-006 -13.5282 0.912078 -0.61339 4.77421e-006 3.55589e-006 2.99999 -8.02888 -4.95144 -0.697664 176.769 15.926 0.495943 -180 7.01549e-015 178.93 175.023 24.0044 -179.399 -2.45299e-006 -1.98149e-007 0.458918 -22.1255 70.1242 21.5891 8.13649 25.2326 -3.48774 -179.993 13.0698 1.2634 4.54188e-006 -4.6773e-006 -1.16821 -2.11668 -25.1085 0.204315 -8.96817e-007 -4.47747e-006 -0.718012 25.2243 73.8471 -26.2344 -8.13649 25.2327 3.48774 
52.8074 86.538 3.32004 0.651 -1.27012 -2.24955 1.38457 -1.65206 0.792854 2.78924 0.714985 1.4452 2.76648 2.35873 1.39941 -22.6367 4.75208 -2.70288 18.0645 9.85911 -8.01695 48.2481 -6.11453 -3.19205 105.868 14.2014 23.3828 4.89447e-009 -1.21252e-006 -3.59924e-006 13.3303 0.097692 -0.404265 -5.37062e-006 -3.89858e-006 -3.02504 8.0289 -4.95148 0.697699 -74.6453 -8.085 5.39426 -93.1937 20.7375 -29.5006 1.52525e-005 3.11965e-006 1.32509e-006 -13.5164 0.913033 -0.612821 4.77421e-006 3.55589e-006 2.99999 -8.02888 -4.95144 -0.697664 176.762 15.915 0.503676 -180 7.01549e-015 178.93 175.021 24.0097 -179.399 -2.45299e-006 -1.98149e-007 0.458916 -22.1257 70.1248 21.5895 8.13649 25.2326 -3.48774 -179.999 13.0544 1.2624 4.54188e-006 -4.6773e-006 -1.1686 -2.12102 -25.1106 0.202489 -8.96817e-007 -4.47747e-006 -0.718397 25.2364 73.8497 -26.2389 -8.13649 25.2327 3.48774 
52.8075 86.5427 3.30669 0.652692 -1.28595 -2.25803 1.38468 -1.64963 0.796225 2.7876 0.719927 1.4519 2.76555 2.36367 1.40612 -22.6177 4.76024 -2.71196 18.0435 9.85756 -8.02307 48.2641 -6.12636 -3.20201 105.874 14.2281 23.2807 4.89449e-009 -1.21252e-006 -3.59924e-006 13.3833 0.0941109 -0.39362 -5.37062e-006 -3.89858e-006 -3.0246 8.0289 -4.95148 0.697699 -74.6307 -8.0723 5.38818 -93.2249 20.7962 -29.4904 1.52525e-005 3.11965e-006 1.32509e-006 -13.5044 0.913805 -0.612279 4.77421e-006 3.55589e-006 2.99999 -8.02888 -4.95144 -0.697664 176.755 15.9039 0.511521 -180 7.01549e-015 178.93 175.019 24.0151 -179.398 -2.45299e-006 -1.98149e-007 0.458915 -22.1259 70.1253 21.5899 8.13649 25.2326 -3.48774 179.994 13.0389 1.26131 4.54188e-006 -4.6773e-006 -1.16899 -2.12549 -25.1128 0.200617 -8.96817e-007 -4.47747e-006 -0.718782 25.2486 73.8522 -26.2435 -8.13649 25.2327 3.48774 
52.8283 86.5365 3.29322 0.654388 -1.30184 -2.2665 1.3848 -1.64719 0.79961 2.78596 0.724888 1.45863 2.76463 2.36863 1.41286 -22.5987 4.76844 -2.72109 18.0224 9.85597 -8.02923 48.2802 -6.13826 -3.21201 105.88 14.2547 23.1788 4.89449e-009 -1.21252e-006 -3.59924e-006 13.4362 0.0904413 -0.382974 -5.37062e-006 -3.89858e-006 -3.02416 8.0289 -4.95148 0.697699 -74.616 -8.05955 5.38208 -93.2562 20.855 -29.4803 1.52525e-005 3.11965e-006 1.32509e-006 -13.4924 0.914531 -0.611744 4.77421e-006 3.55589e-006 2.99999 -8.02888 -4.95144 -0.697664 176.748 15.8927 0.519393 -180 7.01549e-015 178.93 175.017 24.0206 -179.397 -2.45299e-006 -1.98149e-007 0.458914 -22.1261 70.1259 21.5903 8.13649 25.2326 -3.48774 179.987 13.0233 1.26021 4.54188e-006 -4.6773e-006 -1.16938 -2.13 -25.115 0.198733 -8.96817e-007 -4.47747e-006 -0.719167 25.2609 73.8547 -26.2481 -8.13649 25.2327 3.48774 
52.8324 86.5323 3.31327 0.656062 -1.31761 -2.27498 1.3849 -1.64477 0.802966 2.78433 0.72981 1.4653 2.76371 2.37355 1.41954 -22.5799 4.77654 -2.73013 18.0015 9.85445 -8.03531 48.2961 -6.15004 -3.22193 105.886 14.2814 23.0765 4.89447e-009 -1.21252e-006 -3.59924e-006 13.4892 0.0869487 -0.37233 -5.37062e-006 -3.89858e-006 -3.02372 8.0289 -4.95148 0.697699 -74.6015 -8.04689 5.37602 -93.2873 20.9137 -29.4702 1.52525e-005 3.11965e-006 1.32509e-006 -13.4805 0.915348 -0.611195 4.77421e-006 3.55589e-006 2.99999 -8.02888 -4.95144 -0.697664 176.741 15.8816 0.527208 -180 7.01549e-015 178.93 175.015 24.026 -179.397 -2.45299e-006 -1.98149e-007 0.458913 -22.1263 70.1264 21.5908 8.13649 25.2326 -3.48774 179.981 13.0078 1.25914 4.54188e-006 -4.6773e-006 -1.16977 -2.13444 -25.1171 0.196872 -8.96817e-007 -4.47747e-006 -0.719552 25.2731 73.8572 -26.2526 -8.13649 25.2327 3.48774 
52.8345 86.5353 3.32075 0.657687 -1.33311 -2.28349 1.385 -1.6424 0.80625 2.78273 0.734632 1.47183 2.7628 2.37837 1.42608 -22.5614 4.78439 -2.73891 17.9809 9.8531 -8.04121 48.3117 -6.16156 -3.23162 105.892 14.3082 22.9736 4.89447e-009 -1.21252e-006 -3.59924e-006 13.5423 0.0838986 -0.36169 -5.37062e-006 -3.89858e-006 -3.02327 8.0289 -4.95148 0.697699 -74.5872 -8.03445 5.37007 -93.3179 20.9721 -29.46 1.52525e-005 3.11965e-006 1.32509e-006 -13.4688 0.916394 -0.610612 4.77421e-006 3.55589e-006 2.99999 -8.02888 -4.95144 -0.697664 176.734 15.8707 0.534881 -180 7.01549e-015 178.93 175.012 24.0313 -179.396 -2.45299e-006 -1.98149e-007 0.458911 -22.1264 70.127 21.5911 8.13649 25.2326 -3.48774 179.974 12.9925 1.2582 4.54188e-006 -4.6773e-006 -1.17016 -2.13872 -25.1192 0.195069 -8.96817e-007 -4.47747e-006 -0.719937 25.2851 73.8597 -26.2572 -8.13649 25.2327 3.48774 
52.8357 86.5409 3.31566 0.659238 -1.34816 -2.29206 1.38507 -1.6401 0.809417 2.78117 0.739295 1.47813 2.76192 2.38303 1.43239 -22.5435 4.79185 -2.74729 17.9609 9.852 -8.04681 48.3268 -6.17265 -3.24095 105.9 14.3352 22.8697 4.89447e-009 -1.21252e-006 -3.59924e-006 13.5957 0.0815564 -0.351056 -5.37062e-006 -3.89858e-006 -3.02282 8.0289 -4.95148 0.697699 -74.5734 -8.02236 5.36428 -93.3476 21.0301 -29.4495 1.52525e-005 3.11965e-006 1.32509e-006 -13.4577 0.917805 -0.609973 4.77421e-006 3.55589e-006 2.99999 -8.02888 -4.95144 -0.697664 176.727 15.8601 0.542328 -180 7.01549e-015 178.93 175.01 24.0363 -179.396 -2.45299e-006 -1.98149e-007 0.458908 -22.1262 70.1274 21.5914 8.13649 25.2326 -3.48774 179.967 12.9776 1.25743 4.54188e-006 -4.6773e-006 -1.17054 -2.14274 -25.1213 0.193359 -8.96817e-007 -4.47747e-006 -0.720321 25.2969 73.8622 -26.2617 -8.13649 25.2327 3.48774 
52.838 86.5388 3.31788 0.660686 -1.36261 -2.30068 1.38512 -1.63791 0.812423 2.77968 0.743739 1.48412 2.76107 2.38748 1.43838 -22.5265 4.79875 -2.75513 17.9416 9.85127 -8.052 48.3411 -6.18315 -3.24979 105.909 14.3625 22.7643 4.89448e-009 -1.21252e-006 -3.59924e-006 13.6494 0.0801877 -0.340431 -5.37062e-006 -3.89858e-006 -3.02235 8.0289 -4.95148 0.697699 -74.5601 -8.01075 5.35873 -93.3762 21.0874 -29.4387 1.52525e-005 3.11965e-006 1.32509e-006 -13.4472 0.919719 -0.609258 4.77421e-006 3.55589e-006 2.99999 -8.02888 -4.95144 -0.697664 176.72 15.8499 0.549464 -180 7.01549e-015 178.93 175.009 24.041 -179.395 -2.45299e-006 -1.98149e-007 0.458904 -22.1259 70.1277 21.5916 8.13649 25.2326 -3.48774 179.961 12.9631 1.25692 4.54188e-006 -4.6773e-006 -1.17092 -2.1464 -25.1233 0.191777 -8.96817e-007 -4.47747e-006 -0.720705 25.3083 73.8648 -26.2662 -8.13649 25.2327 3.48774 
